<?xml version="1.0" encoding="iso-8859-1"?>
<!-- Generator: Adobe Illustrator 19.0.0, SVG Export Plug-In . SVG Version: 6.00 Build 0)  -->
<svg version="1.1" id="Layer_1" xmlns="http://www.w3.org/2000/svg" xmlns:xlink="http://www.w3.org/1999/xlink" x="0px" y="0px"
	 viewBox="0 0 455 455" style="enable-background:new 0 0 455 455;" xml:space="preserve">
<g>
	<path d="M174.869,242.184c-32.406,3.795-65.09,6.452-97.87,7.969l27.59,156.337c2.747,15.582,17.941,28.17,33.763,28.17h41.729
		c15.822,0,26.52-12.589,23.772-28.17l-19.198-108.83H206.5v-30h-27.137L174.869,242.184z"/>
	<path d="M291.5,192.647c17.211-3.698,30.695-7.001,40-9.349V76.406c-9.305-2.347-22.789-5.651-40-9.349V192.647z"/>
	<path d="M0,129.852c0,53.729,12.11,91.816,12.11,91.816c103.856,0,190.39-11.863,249.39-22.977V61.012
		c-59-11.114-145.534-22.977-249.39-22.977C12.11,38.036,0,76.123,0,129.852z"/>
	<path d="M361.5,74.224V185.48c22.225,14.986,49.628,53.885,93.5,53.885V20.34C411.128,20.34,383.725,59.239,361.5,74.224z"/>
</g>
<g>
</g>
<g>
</g>
<g>
</g>
<g>
</g>
<g>
</g>
<g>
</g>
<g>
</g>
<g>
</g>
<g>
</g>
<g>
</g>
<g>
</g>
<g>
</g>
<g>
</g>
<g>
</g>
<g>
</g>
</svg>
