<?xml version="1.0" encoding="utf-8"?>
<!-- Svg Vector Icons : http://www.onlinewebfonts.com/icon -->
<!DOCTYPE svg PUBLIC "-//W3C//DTD SVG 1.1//EN" "http://www.w3.org/Graphics/SVG/1.1/DTD/svg11.dtd">
<svg version="1.1" xmlns="http://www.w3.org/2000/svg" xmlns:xlink="http://www.w3.org/1999/xlink" x="0px" y="0px" viewBox="0 0 1000 1000" enable-background="new 0 0 1000 1000" xml:space="preserve">
<metadata> Svg Vector Icons : http://www.onlinewebfonts.com/icon </metadata>
<g><g transform="matrix(1 0 0 -1 0 1920)"><path d="M357,1135.2c-22.3,0-42.4,8-60.1,24.1c-17.7,16.1-30.4,36.1-38,60.1l-85.8,405.4V1825c0,23.4,8.3,43.5,24.9,60.1c16.6,16.6,36.6,24.9,60.1,24.9h483.9c23.4,0,43.5-8.3,60.1-24.9c16.6-16.6,24.9-36.6,24.9-60.1v-200.3l-85.8-405.4c-7.9-23.4-20.6-43.3-38.2-59.7c-17.6-16.3-37.5-24.5-59.9-24.5H357z M385.6,1661.5h228.9l63.8,99.3c-0.5,1.4-1.4,3.1-2.5,5.1c-1.1,2-3.8,6.1-8.2,12.1c-4.4,6-9.3,11.7-14.9,17.2c-5.6,5.4-13.3,11.5-23.3,18.2c-9.9,6.7-20.7,12.4-32.3,17.2c-11.6,4.8-25.9,8.8-42.9,12.1c-17,3.3-35.1,4.9-54.1,4.9c-26.4,0-50.6-3-72.5-9c-21.9-6-39.1-13.2-51.5-21.7c-12.4-8.4-23-16.9-31.7-25.3c-8.7-8.4-14.6-15.7-17.6-21.7l-4.9-9L385.6,1661.5z M502,1707.7l79.7,107.1l-15.5-107.1H502z M383.9,1248.8h68.7c1.6,0,3.1,0.3,4.3,1c1.2,0.7,2.2,1.7,3.1,3.1c0.8,1.4,1.2,2.7,1.2,4.1v72.7h88.7c18.8,0,35.7,2.9,50.7,8.6s27.1,13.6,36.4,23.5c9.3,9.9,16.3,21.3,21.3,33.9c4.9,12.7,7.4,26.2,7.4,40.7c0,15-2.1,28.8-6.3,41.5c-4.2,12.7-10.7,24.2-19.4,34.7s-20.7,18.7-36,24.7c-15.3,6-33.2,9-53.9,9H383.9c-1.6,0-3.1-0.4-4.3-1.2c-1.2-0.8-2.2-1.8-3.1-3.1c-0.8-1.2-1.2-2.7-1.2-4.3v-280.8c0-1.1,0.3-2.1,0.8-3.1c0.5-1,1.2-1.8,1.8-2.7c0.7-0.8,1.6-1.4,2.7-1.8C381.8,1249,382.8,1248.8,383.9,1248.8z M461.2,1379.5v118.5H509c21.8,0,38.6-4.9,50.5-14.7c11.9-9.8,17.8-24.4,17.8-43.7c0-10.6-2-20-6.1-28c-4.1-8-9.5-14.3-16.3-18.8c-6.8-4.5-14.1-7.8-21.9-10c-7.8-2.2-15.7-3.3-23.9-3.3H461.2z M418.3,930v163.5h163.5V930H418.3z"/></g></g>
</svg>