<?xml version="1.0" encoding="utf-8"?>
<!-- Svg Vector Icons : http://www.onlinewebfonts.com/icon -->
<!DOCTYPE svg PUBLIC "-//W3C//DTD SVG 1.1//EN" "http://www.w3.org/Graphics/SVG/1.1/DTD/svg11.dtd">
<svg version="1.1" xmlns="http://www.w3.org/2000/svg" xmlns:xlink="http://www.w3.org/1999/xlink" x="0px" y="0px" viewBox="0 0 1000 1000" enable-background="new 0 0 1000 1000" xml:space="preserve">
<metadata> Svg Vector Icons : http://www.onlinewebfonts.com/icon </metadata>
<g><g><g><path d="M731,14.3c65.5,0,118.6,53.1,118.6,118.6c0,65.5-53.1,118.6-118.6,118.6c-65.5,0-118.6-53.1-118.6-118.6C612.4,67.4,665.5,14.3,731,14.3z"/><path d="M487.3,760v-29.3c0-23.6,11.6-46.6,30.5-61.2V569.3H408.2c-42.3,0-76.4-33.4-76.4-75.7c0-6.9,3.1-12.6,3.1-19v-27.1h12.7c14.1-20.3,35.9-30.5,60.5-30.5h100.4c1.1-5.1,4.1-6.8,4.1-10.8V134.4c0-22.7-20.9-42.4-43.6-42.4H130.8c-22.7,0-39.5,19.7-39.5,42.4v271.8c0,22.7,16.8,41.3,39.5,41.3H269V483h-46.5c-20.4,0-36.9,15.2-36.9,40.6h-158c-10.5,0-17.6,5.9-17.6,16.5v43c0,10.4,7.1,16.7,17.6,16.7h53.5v385.9h446.8V811.9C527.9,811.9,487.3,803.3,487.3,760z M190.5,386.5c-22.6,0-43.4-16.2-43.4-38.8V193c0-22.7,20.7-40,43.4-40h220c22.7,0,41.3,17.3,41.3,40v154.8c0,22.6-18.6,38.8-41.3,38.8H190.5z"/><path d="M810.1,271.3h-157c-96.2,0-102.3,96.3-102.3,96.3S538,432.5,527.3,440c-3.3,2.3-7.1,3.9-11.6,3.9H408.2c-25.4,0-46,20.2-46,45.7c0,25.4,20.6,45.7,46,45.7h107.5c16.7,0,31.4,0.1,33.4-0.4l-1,112.1h61.1V398.9c0-50,32.2-107.3,82.7-107.3H879C860.4,276.4,836.3,271.3,810.1,271.3z"/><path d="M928.6,777.5c33.9,0,61.4-27.5,61.4-61.4V401c0-37.9-32.2-70.3-70-70.3H707.2c-37.9,0-67.6,32.3-67.6,70.3V681h-68.5c-26.4,0-48.3,20.3-48.3,46.6V745c0,17.9,14.6,32.4,32.5,32.4h145.3V818h-23.3c0,0-58,1.4-58,55.3v77.3c0,17.4,13,31.6,30.6,31.6c17.5,0,31.2-14.4,31.2-31.8l-0.5-71.6h106.2v71.7c0,17.4,15.4,31.6,33,31.6c17.6,0,33-14.2,33-31.6v-77.3c0-58.6-62.3-55.3-62.3-55.3h-24.1v-40.6L928.6,777.5L928.6,777.5z"/></g></g><g></g><g></g><g></g><g></g><g></g><g></g><g></g><g></g><g></g><g></g><g></g><g></g><g></g><g></g><g></g></g>
</svg>